<?xml version="1.0" encoding="UTF-8"?>
<svg width="90" height="90" viewBox="0 0 23.812 23.812" xmlns="http://www.w3.org/2000/svg">
 <circle cx="11.906" cy="11.906" r="11.906" fill="#00093d"/>
 <title>Logo de Aprengal</title>
 <g transform="matrix(.023269 0 0 .02329 6.7909 18.738)" aria-label="?">
   <path d="m220.54-151.82q-17.579 0-28.765-11.986-10.388-12.785-10.388-32.761 0-32.761 10.388-57.531 11.187-24.77 26.368-41.55t39.153-38.354q27.167-23.971 39.952-40.751t12.785-39.153q0-41.55-23.971-67.918t-63.923-26.368q-48.741 0-71.115 19.976t-22.373 59.928q0 16.78 8.7894 27.966 9.5885 11.187 23.172 11.187 19.976 0 31.163 11.187 11.986 11.187 11.986 31.163 0 16.78-12.785 27.966-11.986 10.388-30.364 10.388-30.364 0-56.732-15.981-25.569-16.78-40.751-43.947-15.182-27.966-15.182-59.928 0-71.914 46.344-114.26 47.143-42.349 126.25-42.349 48.741 0 87.095 22.373 39.153 22.373 60.727 61.526 22.373 38.354 22.373 87.095 0 32.761-11.187 58.33-10.388 24.77-25.569 42.349-15.182 16.78-39.952 39.153-26.368 22.373-39.153 39.153t-12.785 38.354q0 19.976-11.986 32.761-11.187 11.986-29.564 11.986zm1.5981 151.02q-24.77 0-42.349-16.78-17.579-17.579-17.579-42.349 0-23.172 17.579-39.952 17.579-17.579 42.349-17.579 23.172 0 39.952 17.579 17.579 16.78 17.579 39.952 0 23.971-16.78 41.55-16.78 17.579-40.751 17.579z" fill="#3bffff"/>
 </g>
</svg>
